<svg xmlns="http://www.w3.org/2000/svg" viewBox="0 0 24 24">
  <path
    fill="#85858E"
    fill-rule="evenodd"
    clip-rule="evenodd"
    d="M3 1h18a2 2 0 0 1 2 2v18a2 2 0 0 1-2 2H3a2 2 0 0 1-2-2V3a2 2 0 0 1 2-2Zm9.01 3.4c-1.54 0-2.96.2-4.2.58-.36 1.22-.57 2.62-.57 4.14 0 .21 0 .42.02.63.22.01.44.01.66.01 2.92 0 4.34-1.42 4.34-4.36 0-.22 0-.44-.01-.66-.08 0-.16-.01-.24-.01Zm-.01 15.2c1.54 0 2.96-.2 4.2-.58.36-1.22.57-2.62.57-4.14 0-.21 0-.42-.02-.63a14.3 14.3 0 0 0-.66-.01c-2.92 0-4.34 1.42-4.34 4.36 0 .22 0 .44.01.66.08 0 .16.01.24.01Zm7.6-7.59c0-1.54-.2-2.96-.58-4.2-1.22-.36-2.62-.57-4.14-.57-.21 0-.42 0-.63.02-.01.22-.01.44-.01.66 0 2.92 1.42 4.34 4.36 4.34.22 0 .44 0 .66-.01 0-.08.01-.16.01-.24ZM4.4 12c0 1.54.2 2.96.58 4.2 1.22.36 2.62.57 4.14.57.21 0 .42 0 .63-.02.01-.22.01-.44.01-.66 0-2.92-1.42-4.34-4.36-4.34-.22 0-.44 0-.66.01 0 .08-.01.16-.01.24Z"
  />
</svg>
